<?xml version="1.0" encoding="UTF-8" standalone="no"?>
<!DOCTYPE svg PUBLIC "-//W3C//DTD SVG 1.1//EN" "http://www.w3.org/Graphics/SVG/1.1/DTD/svg11.dtd">
<svg width="169.45" height="47.9" viewBox="0 0 169.45 47.9" xmlns="http://www.w3.org/2000/svg"><g id="svgGroup" stroke-linecap="round" fill-rule="evenodd" font-size="9pt" stroke="#000" stroke-width="0.25mm" fill="#000" style="stroke:#000;stroke-width:0.25mm;fill:#000"><path d="M 5.6 9.15 L 4.25 7.15 A 22.333 22.333 0 0 1 6.763 5.231 Q 8.107 4.341 9.697 3.527 A 35.645 35.645 0 0 1 9.8 3.475 A 16.598 16.598 0 0 1 12.794 2.287 A 12.4 12.4 0 0 1 16.175 1.8 Q 19.25 1.8 20.45 4.3 Q 21.464 6.413 21.621 10.526 A 41.31 41.31 0 0 1 21.65 12.1 A 49.449 49.449 0 0 1 21.392 17.005 Q 21.059 20.331 20.3 24.1 Q 23.35 23.7 25.35 23.7 L 28 23.7 Q 28.1 24.1 28.1 24.9 A 4.028 4.028 0 0 1 28.06 25.432 Q 27.966 26.13 27.65 27.15 Q 25.85 26.95 23.625 27 Q 21.4 27.05 19.6 27.3 Q 18.033 33.821 15.57 38.478 A 31.32 31.32 0 0 1 14.65 40.1 A 15.767 15.767 0 0 1 12.871 42.533 A 12.173 12.173 0 0 1 10.775 44.4 Q 8.55 45.95 5.9 45.95 A 6.148 6.148 0 0 1 3.847 45.621 A 5.237 5.237 0 0 1 1.625 44.1 Q 0 42.25 0 39.35 A 10.815 10.815 0 0 1 1.782 33.455 A 15.338 15.338 0 0 1 3.525 31.225 A 22.196 22.196 0 0 1 12.07 25.58 A 25.624 25.624 0 0 1 12.15 25.55 Q 13.75 18.8 13.75 12.15 Q 13.75 8.95 13.275 7.8 A 2.84 2.84 0 0 0 13.012 7.299 Q 12.835 7.035 12.618 6.879 A 1.197 1.197 0 0 0 11.9 6.65 Q 10.087 6.65 7.107 8.272 A 32.041 32.041 0 0 0 5.6 9.15 Z M 3.45 38.85 Q 3.45 39.9 3.85 40.5 A 2.031 2.031 0 0 0 4.297 41.001 A 1.655 1.655 0 0 0 5.35 41.35 A 2.107 2.107 0 0 0 6.439 40.972 Q 7.53 40.259 8.675 38.2 Q 10.326 35.233 11.496 29.837 A 63.631 63.631 0 0 0 11.6 29.35 Q 8.25 30.6 5.85 33.325 Q 3.918 35.519 3.541 37.762 A 6.562 6.562 0 0 0 3.45 38.85 Z" id="0" vector-effect="non-scaling-stroke"/><path d="M 35.8 32.2 L 36.4 31.9 L 37.25 33.65 Q 36.8 34.05 36.05 34.65 Q 35.3 35.25 33.25 36.275 A 11.171 11.171 0 0 1 31.694 36.919 Q 30.516 37.3 29.45 37.3 A 4.59 4.59 0 0 1 28.289 37.161 A 3.238 3.238 0 0 1 26.7 36.225 A 3.614 3.614 0 0 1 25.832 34.552 Q 25.701 33.99 25.7 33.33 A 6.701 6.701 0 0 1 25.7 33.325 A 8.973 8.973 0 0 1 25.773 32.274 Q 25.981 30.552 26.774 27.495 A 92.551 92.551 0 0 1 26.95 26.825 A 104.876 104.876 0 0 0 27.375 25.187 Q 28.016 22.623 28.159 21.365 A 5.579 5.579 0 0 0 28.2 20.75 Q 28.2 18.65 26.9 16.8 L 26.45 16.2 L 26.5 15.55 A 14.201 14.201 0 0 1 28.196 15.196 Q 30.062 14.91 32.84 14.83 A 79.43 79.43 0 0 1 35.1 14.8 A 1.975 1.975 0 0 1 35.436 15.382 Q 35.664 15.969 35.727 16.9 A 11.239 11.239 0 0 1 35.75 17.65 Q 35.75 19.678 34.491 24.528 A 101.711 101.711 0 0 1 34.4 24.875 Q 33.05 30 33.05 31.575 Q 33.05 32.706 33.282 33.025 A 0.265 0.265 0 0 0 33.5 33.15 Q 33.8 33.15 35.8 32.2 Z M 29.121 7.529 A 3.244 3.244 0 0 0 30.05 9.325 A 3.161 3.161 0 0 0 30.217 9.477 Q 30.819 9.985 31.662 10.179 A 5.06 5.06 0 0 0 32.8 10.3 A 4.512 4.512 0 0 0 34.518 9.968 A 5.165 5.165 0 0 0 35.975 9.05 A 5.106 5.106 0 0 0 36.548 8.464 A 3.51 3.51 0 0 0 37.4 6.175 A 4.681 4.681 0 0 0 37.352 5.494 A 3.361 3.361 0 0 0 36.4 3.55 A 3.097 3.097 0 0 0 36.071 3.264 Q 35.505 2.839 34.737 2.667 A 5.203 5.203 0 0 0 33.6 2.55 Q 31.8 2.55 30.425 3.8 Q 29.05 5.05 29.05 6.7 A 4.661 4.661 0 0 0 29.121 7.529 Z" id="1" vector-effect="non-scaling-stroke"/><path d="M 39.15 9.15 L 37.8 7.15 A 22.333 22.333 0 0 1 40.313 5.231 Q 41.657 4.341 43.247 3.527 A 35.645 35.645 0 0 1 43.35 3.475 A 16.598 16.598 0 0 1 46.344 2.287 A 12.4 12.4 0 0 1 49.725 1.8 Q 52.8 1.8 54 4.3 Q 55.014 6.413 55.171 10.526 A 41.31 41.31 0 0 1 55.2 12.1 A 49.449 49.449 0 0 1 54.942 17.005 Q 54.609 20.331 53.85 24.1 Q 56.9 23.7 58.9 23.7 L 61.55 23.7 Q 61.65 24.1 61.65 24.9 A 4.028 4.028 0 0 1 61.61 25.432 Q 61.516 26.13 61.2 27.15 Q 59.4 26.95 57.175 27 Q 54.95 27.05 53.15 27.3 Q 51.583 33.821 49.12 38.478 A 31.32 31.32 0 0 1 48.2 40.1 A 15.767 15.767 0 0 1 46.421 42.533 A 12.173 12.173 0 0 1 44.325 44.4 Q 42.1 45.95 39.45 45.95 A 6.148 6.148 0 0 1 37.397 45.621 A 5.237 5.237 0 0 1 35.175 44.1 Q 33.55 42.25 33.55 39.35 A 10.815 10.815 0 0 1 35.332 33.455 A 15.338 15.338 0 0 1 37.075 31.225 A 22.196 22.196 0 0 1 45.62 25.58 A 25.624 25.624 0 0 1 45.7 25.55 Q 47.3 18.8 47.3 12.15 Q 47.3 8.95 46.825 7.8 A 2.84 2.84 0 0 0 46.562 7.299 Q 46.385 7.035 46.168 6.879 A 1.197 1.197 0 0 0 45.45 6.65 Q 43.637 6.65 40.657 8.272 A 32.041 32.041 0 0 0 39.15 9.15 Z M 37 38.85 Q 37 39.9 37.4 40.5 A 2.031 2.031 0 0 0 37.847 41.001 A 1.655 1.655 0 0 0 38.9 41.35 A 2.107 2.107 0 0 0 39.989 40.972 Q 41.08 40.259 42.225 38.2 Q 43.876 35.233 45.046 29.837 A 63.631 63.631 0 0 0 45.15 29.35 Q 41.8 30.6 39.4 33.325 Q 37.468 35.519 37.091 37.762 A 6.562 6.562 0 0 0 37 38.85 Z" id="2" vector-effect="non-scaling-stroke"/><path d="M 69.35 32.2 L 69.95 31.9 L 70.8 33.65 Q 70.35 34.05 69.6 34.65 Q 68.85 35.25 66.8 36.275 A 11.171 11.171 0 0 1 65.244 36.919 Q 64.066 37.3 63 37.3 A 4.59 4.59 0 0 1 61.839 37.161 A 3.238 3.238 0 0 1 60.25 36.225 A 3.614 3.614 0 0 1 59.382 34.552 Q 59.251 33.99 59.25 33.33 A 6.701 6.701 0 0 1 59.25 33.325 A 8.973 8.973 0 0 1 59.323 32.274 Q 59.531 30.552 60.324 27.495 A 92.551 92.551 0 0 1 60.5 26.825 A 104.876 104.876 0 0 0 60.925 25.187 Q 61.566 22.623 61.709 21.365 A 5.579 5.579 0 0 0 61.75 20.75 Q 61.75 18.65 60.45 16.8 L 60 16.2 L 60.05 15.55 A 14.201 14.201 0 0 1 61.746 15.196 Q 63.612 14.91 66.39 14.83 A 79.43 79.43 0 0 1 68.65 14.8 A 1.975 1.975 0 0 1 68.986 15.382 Q 69.214 15.969 69.277 16.9 A 11.239 11.239 0 0 1 69.3 17.65 Q 69.3 19.678 68.041 24.528 A 101.711 101.711 0 0 1 67.95 24.875 Q 66.6 30 66.6 31.575 Q 66.6 32.706 66.832 33.025 A 0.265 0.265 0 0 0 67.05 33.15 Q 67.35 33.15 69.35 32.2 Z M 62.671 7.529 A 3.244 3.244 0 0 0 63.6 9.325 A 3.161 3.161 0 0 0 63.767 9.477 Q 64.369 9.985 65.212 10.179 A 5.06 5.06 0 0 0 66.35 10.3 A 4.512 4.512 0 0 0 68.068 9.968 A 5.165 5.165 0 0 0 69.525 9.05 A 5.106 5.106 0 0 0 70.098 8.464 A 3.51 3.51 0 0 0 70.95 6.175 A 4.681 4.681 0 0 0 70.902 5.494 A 3.361 3.361 0 0 0 69.95 3.55 A 3.097 3.097 0 0 0 69.621 3.264 Q 69.055 2.839 68.287 2.667 A 5.203 5.203 0 0 0 67.15 2.55 Q 65.35 2.55 63.975 3.8 Q 62.6 5.05 62.6 6.7 A 4.661 4.661 0 0 0 62.671 7.529 Z" id="3" vector-effect="non-scaling-stroke"/><path d="M 94.25 32.25 L 94.85 31.95 L 95.75 33.7 Q 95.3 34.1 94.55 34.7 Q 93.985 35.152 92.709 35.832 A 39.744 39.744 0 0 1 91.8 36.3 Q 89.8 37.3 88.125 37.3 A 4.221 4.221 0 0 1 86.931 37.139 A 3.23 3.23 0 0 1 85.45 36.225 A 3.614 3.614 0 0 1 84.582 34.552 Q 84.451 33.99 84.45 33.33 A 6.701 6.701 0 0 1 84.45 33.325 Q 84.45 31.634 85.416 27.366 A 110.294 110.294 0 0 1 85.575 26.675 A 136.096 136.096 0 0 0 85.957 24.99 Q 86.517 22.443 86.655 21.227 A 6.011 6.011 0 0 0 86.7 20.575 A 2.261 2.261 0 0 0 86.655 20.102 Q 86.483 19.3 85.65 19.3 A 4.04 4.04 0 0 0 84.685 19.429 Q 83.783 19.651 82.653 20.26 A 14.946 14.946 0 0 0 82.4 20.4 Q 79.65 32.5 79.65 36.1 A 8.542 8.542 0 0 1 78.326 36.469 Q 76.209 36.9 72.5 36.9 A 32.342 32.342 0 0 1 72.466 36.195 Q 72.45 35.766 72.45 35.4 A 9.423 9.423 0 0 1 72.555 34.228 Q 72.927 31.495 74.621 24.138 A 554.741 554.741 0 0 1 75.425 20.7 A 258.14 258.14 0 0 0 76.584 15.597 Q 78.4 7.177 78.4 3.7 Q 78.4 2.05 78.1 1.35 Q 82 0 85.45 0 Q 85.862 0.412 85.897 1.999 A 13.806 13.806 0 0 1 85.9 2.3 A 16.34 16.34 0 0 1 85.768 4.135 Q 85.293 8.18 83.1 17.5 A 22.474 22.474 0 0 1 85.299 16.074 Q 87.84 14.644 89.926 14.556 A 6.451 6.451 0 0 1 90.2 14.55 Q 92.1 14.55 93.075 15.75 A 4.174 4.174 0 0 1 93.877 17.397 Q 94.05 18.092 94.05 18.925 Q 94.05 20.9 92.9 25.375 A 81.721 81.721 0 0 0 92.424 27.317 Q 91.844 29.83 91.763 31.116 A 6.153 6.153 0 0 0 91.75 31.5 A 10.654 10.654 0 0 0 91.76 31.975 Q 91.807 33.018 92.078 33.135 A 0.18 0.18 0 0 0 92.15 33.15 A 0.862 0.862 0 0 0 92.366 33.113 Q 92.895 32.967 94.25 32.25 Z" id="4" vector-effect="non-scaling-stroke"/><path d="M 98.55 16.15 L 98.6 15.5 A 28.514 28.514 0 0 1 101.192 15.101 Q 103.908 14.8 107.55 14.8 Q 107.792 15.428 107.8 17.035 A 22.387 22.387 0 0 1 107.8 17.15 Q 107.8 18.552 106.848 22.571 A 129.723 129.723 0 0 1 106.4 24.4 A 158.201 158.201 0 0 0 105.924 26.334 Q 105 30.203 105 31.3 A 2.686 2.686 0 0 0 105.04 31.784 Q 105.192 32.61 105.928 32.648 A 1.403 1.403 0 0 0 106 32.65 A 4.94 4.94 0 0 0 107.227 32.483 Q 107.778 32.342 108.381 32.08 A 11.385 11.385 0 0 0 109.35 31.6 Q 109.55 30.4 110.35 27 Q 112.143 19.033 112.15 15.578 A 13.39 13.39 0 0 0 112.15 15.55 Q 113.84 14.874 118.142 14.851 A 57.292 57.292 0 0 1 118.45 14.85 L 119.4 14.85 Q 119.4 17.2 118 24.025 A 321.417 321.417 0 0 0 117.524 26.386 Q 116.714 30.492 116.614 31.733 A 3.748 3.748 0 0 0 116.6 32.025 Q 116.6 33.2 117.1 33.2 A 0.721 0.721 0 0 0 117.281 33.161 Q 117.752 33.017 119.235 32.333 A 100.587 100.587 0 0 0 119.95 32 L 120.9 33.6 Q 116.873 36.949 113.746 37.267 A 6.384 6.384 0 0 1 113.1 37.3 Q 111.5 37.3 110.375 36.4 A 3.327 3.327 0 0 1 109.106 34.106 A 4.103 4.103 0 0 1 109.1 34.05 Q 105.076 37.329 101.792 37.35 A 6.619 6.619 0 0 1 101.75 37.35 A 4.352 4.352 0 0 1 100.338 37.13 A 3.689 3.689 0 0 1 98.875 36.2 Q 97.75 35.05 97.75 32.925 A 11.408 11.408 0 0 1 97.831 31.672 Q 98.075 29.506 99.05 25.625 A 157.83 157.83 0 0 0 99.492 23.825 Q 100.35 20.23 100.35 19.275 A 2.166 2.166 0 0 0 100.194 18.515 Q 99.932 17.822 99.232 16.941 A 14.16 14.16 0 0 0 98.55 16.15 Z" id="5" vector-effect="non-scaling-stroke"/><path d="M 123.65 36.85 L 122.7 36.85 Q 122.7 34.922 123.66 30.098 A 156.196 156.196 0 0 1 124.125 27.85 Q 125.301 22.363 125.506 20.791 A 4.218 4.218 0 0 0 125.55 20.3 A 4.502 4.502 0 0 0 125.242 18.709 Q 125.014 18.101 124.615 17.469 A 9.604 9.604 0 0 0 124.15 16.8 L 123.7 16.2 L 123.75 15.55 A 14.78 14.78 0 0 1 125.47 15.196 Q 128.077 14.8 132.4 14.8 A 2.422 2.422 0 0 1 132.733 15.428 Q 133.065 16.318 133.1 17.9 A 26.108 26.108 0 0 1 135.316 16.357 Q 137.66 14.912 139.539 14.622 A 5.987 5.987 0 0 1 140.45 14.55 Q 142.25 14.55 143.325 15.8 A 4.408 4.408 0 0 1 144.352 18.162 A 5.914 5.914 0 0 1 144.4 18.925 Q 144.4 20.8 143.25 25.4 A 93.293 93.293 0 0 0 142.802 27.268 Q 142.1 30.345 142.1 31.575 Q 142.1 33.043 142.447 33.143 A 0.189 0.189 0 0 0 142.5 33.15 Q 142.8 33.15 144.6 32.2 L 145.2 31.9 L 146.1 33.65 A 18.014 18.014 0 0 1 145.856 33.863 Q 145.463 34.2 144.9 34.65 Q 144.156 35.245 142.158 36.258 A 52.123 52.123 0 0 1 142.125 36.275 Q 140.1 37.3 138.5 37.3 A 4.588 4.588 0 0 1 136.99 37.072 Q 134.85 36.327 134.85 33.15 A 9.346 9.346 0 0 1 134.912 32.168 Q 135.094 30.48 135.814 27.382 A 106.567 106.567 0 0 1 135.975 26.7 Q 136.889 22.881 137.061 21.274 A 6.052 6.052 0 0 0 137.1 20.65 A 3.208 3.208 0 0 0 137.07 20.191 Q 136.991 19.646 136.702 19.435 A 0.744 0.744 0 0 0 136.25 19.3 Q 134.87 19.3 132.902 20.432 A 15.541 15.541 0 0 0 132.7 20.55 Q 132.55 21.4 131.7 25.05 Q 129.95 32.9 129.95 36.15 Q 128.26 36.826 123.958 36.849 A 57.292 57.292 0 0 1 123.65 36.85 Z" id="6" vector-effect="non-scaling-stroke"/><path d="M 168.5 14.85 L 169.45 14.85 A 23.632 23.632 0 0 0 169.198 15.983 Q 168.64 18.748 167.649 25.53 A 666.984 666.984 0 0 0 167.475 26.725 A 651.805 651.805 0 0 1 166.987 30.052 Q 165.988 36.728 165.5 38.8 A 21.698 21.698 0 0 1 164.794 41.2 A 16.696 16.696 0 0 1 163.875 43.3 A 9.503 9.503 0 0 1 162.93 44.772 Q 162.272 45.606 161.481 46.153 A 5.921 5.921 0 0 1 161.375 46.225 A 10.107 10.107 0 0 1 159.708 47.124 A 8.221 8.221 0 0 1 158.4 47.55 A 11.434 11.434 0 0 1 157.209 47.756 Q 156.628 47.828 155.957 47.864 A 26.861 26.861 0 0 1 154.525 47.9 A 7.384 7.384 0 0 1 150.695 46.814 A 9.314 9.314 0 0 1 150.025 46.375 Q 147.921 44.865 147.9 43.772 A 1.145 1.145 0 0 1 147.9 43.75 A 0.906 0.906 0 0 1 148.011 43.353 Q 148.283 42.809 149.222 41.983 A 16.339 16.339 0 0 1 149.675 41.6 Q 151.45 40.15 152.65 39.8 A 17.76 17.76 0 0 1 155.202 42.987 A 15.137 15.137 0 0 1 156.4 45.35 A 1.275 1.275 0 0 0 157.249 44.992 Q 157.966 44.361 158.576 42.62 A 15.798 15.798 0 0 0 158.7 42.25 A 19.652 19.652 0 0 0 159.237 40.154 Q 159.804 37.369 160.05 33.15 A 9.172 9.172 0 0 1 159.077 33.984 Q 158.008 34.788 156.4 35.625 A 14.197 14.197 0 0 1 154.781 36.351 Q 153.946 36.66 153.186 36.795 A 6.49 6.49 0 0 1 152.05 36.9 Q 147.9 36.9 147.9 32.3 Q 147.9 31.358 148.634 27.372 A 232.328 232.328 0 0 1 148.9 25.95 Q 149.572 22.423 149.792 19.685 A 31.091 31.091 0 0 0 149.9 17.2 A 4.966 4.966 0 0 0 149.806 16.219 A 4.321 4.321 0 0 0 149.7 15.8 A 12.853 12.853 0 0 1 151.793 15.202 Q 153.981 14.757 157.004 14.75 A 41.801 41.801 0 0 1 157.1 14.75 A 2.989 2.989 0 0 1 157.215 15.192 Q 157.306 15.669 157.336 16.389 A 18.53 18.53 0 0 1 157.35 17.15 A 9.486 9.486 0 0 1 157.297 18.056 Q 157.154 19.518 156.616 22.196 A 125.066 125.066 0 0 1 156.25 23.95 A 130.513 130.513 0 0 0 155.821 26.011 Q 155.278 28.746 155.174 30.06 A 6.989 6.989 0 0 0 155.15 30.6 Q 155.15 31.53 155.438 31.902 A 0.615 0.615 0 0 0 155.95 32.15 A 6.48 6.48 0 0 0 159.002 31.367 A 8.739 8.739 0 0 0 160.2 30.6 A 33.72 33.72 0 0 1 160.316 29.507 Q 160.627 26.867 161.687 19.226 A 2688.911 2688.911 0 0 1 162.2 15.55 Q 163.89 14.874 168.192 14.851 A 57.292 57.292 0 0 1 168.5 14.85 Z" id="7" vector-effect="non-scaling-stroke"/></g></svg>